<svg width="782" height="240" viewBox="249 296 782 240" fill="none" xmlns="http://www.w3.org/2000/svg">
<path fill-rule="evenodd" clip-rule="evenodd" d="M461.49 432.259C485.301 380.797 468.677 338.068 439.349 315.695C398.669 282.877 334.872 292.272 308.814 336.13C377.553 313.307 454.829 362.978 461.49 432.259ZM332.088 504.879C293.899 497.719 271.894 461.793 269.648 429.126C231.01 474.77 282.667 534.861 332.088 504.879Z" fill="black"/>
<path d="M257.87 355.568C277.765 323.047 313.232 323.851 328.478 328.318C319.449 329.659 295.084 341.363 278.742 370.31C263.358 397.56 267.123 421.479 270.732 441.279C248.972 420.73 237.976 388.089 257.87 355.568Z" fill="black" stroke="black" stroke-width="0.412343"/>
<path d="M429.776 524.94C395.399 546.714 344.387 534.884 322.461 503.948C335.438 505.742 376.37 512.964 415.535 486.463C449.991 463.15 462.968 437.146 462.968 416.074C482.209 457.321 468.706 500.281 429.776 524.94Z" fill="black" stroke="black" stroke-width="0.412343"/>
<path d="M966.225 491.554C957.637 491.554 949.858 489.314 942.889 484.834C935.968 480.305 930.471 473.661 926.398 464.901C922.373 456.092 920.363 445.292 920.363 432.501C920.363 419.361 922.45 408.437 926.617 399.728C930.79 390.968 936.334 384.423 943.256 380.093C950.225 375.713 957.862 373.523 966.154 373.523C972.485 373.523 977.763 374.619 981.983 376.808C986.251 378.949 989.691 381.636 992.292 384.871C994.94 388.056 996.956 391.192 998.327 394.277H999.284V336.793H1030.58V489.687H999.651V471.322H998.327C996.855 474.507 994.769 477.667 992.067 480.803C989.419 483.889 985.961 486.452 981.688 488.493C977.468 490.533 972.313 491.554 966.225 491.554ZM976.167 466.245C981.221 466.245 985.495 464.852 988.976 462.064C992.511 459.227 995.212 455.271 997.074 450.194C998.989 445.118 999.946 439.17 999.946 432.352C999.946 425.533 999.013 419.61 997.151 414.584C995.283 409.557 992.587 405.675 989.053 402.937C985.518 400.2 981.221 398.831 976.167 398.831C971.013 398.831 966.669 400.25 963.134 403.087C959.599 405.924 956.928 409.855 955.113 414.882C953.292 419.909 952.388 425.732 952.388 432.352C952.388 439.021 953.292 444.918 955.113 450.045C956.975 455.121 959.652 459.103 963.134 461.99C966.669 464.827 971.013 466.245 976.167 466.245Z" fill="black"/>
<path d="M835.242 423.393V489.687H803.879V375.017H833.77V395.248H835.095C837.598 388.579 841.794 383.303 847.687 379.421C853.575 375.49 860.715 373.523 869.108 373.523C876.964 373.523 883.808 375.266 889.648 378.75C895.488 382.233 900.028 387.211 903.273 393.68C906.512 400.101 908.131 407.765 908.131 416.674V489.687H876.769V422.348C876.816 415.331 875.049 409.856 871.467 405.924C867.885 401.942 862.949 399.952 856.666 399.952C852.446 399.952 848.716 400.872 845.477 402.714C842.285 404.556 839.782 407.243 837.967 410.777C836.2 414.26 835.291 418.466 835.242 423.393Z" fill="black"/>
<path d="M736.119 491.927C724.684 491.927 714.794 489.463 706.45 484.536C698.155 479.559 691.749 472.641 687.234 463.782C682.719 454.873 680.461 444.546 680.461 432.8C680.461 420.955 682.719 410.602 687.234 401.744C691.749 392.835 698.155 385.917 706.45 380.989C714.794 376.012 724.684 373.523 736.119 373.523C747.556 373.523 757.421 376.012 765.716 380.989C774.06 385.917 780.49 392.835 785.005 401.744C789.521 410.602 791.779 420.955 791.779 432.8C791.779 444.546 789.521 454.873 785.005 463.782C780.49 472.641 774.06 479.559 765.716 484.536C757.421 489.463 747.556 491.927 736.119 491.927ZM736.267 467.291C741.47 467.291 745.813 465.798 749.298 462.811C752.783 459.775 755.409 455.644 757.176 450.419C758.992 445.192 759.9 439.245 759.9 432.576C759.9 425.907 758.992 419.959 757.176 414.733C755.409 409.507 752.783 405.377 749.298 402.341C745.813 399.305 741.47 397.786 736.267 397.786C731.015 397.786 726.598 399.305 723.015 402.341C719.481 405.377 716.806 409.507 714.99 414.733C713.223 419.959 712.34 425.907 712.34 432.576C712.34 439.245 713.223 445.192 714.99 450.419C716.806 455.644 719.481 459.775 723.015 462.811C726.598 465.798 731.015 467.291 736.267 467.291Z" fill="black"/>
<path d="M561.5 489.687V336.793H620.987C632.423 336.793 642.166 339.008 650.215 343.437C658.265 347.817 664.4 353.914 668.621 361.728C672.892 369.492 675.027 378.451 675.027 388.604C675.027 398.757 672.867 407.716 668.548 415.479C664.229 423.244 657.97 429.291 649.774 433.621C641.626 437.951 631.761 440.116 620.177 440.116H582.262V414.21H615.024C621.159 414.21 626.214 413.14 630.19 411C634.215 408.81 637.209 405.799 639.172 401.967C641.184 398.085 642.191 393.631 642.191 388.604C642.191 383.527 641.184 379.098 639.172 375.315C637.209 371.483 634.215 368.522 630.19 366.431C626.165 364.291 621.061 363.221 614.876 363.221H593.379V489.687H561.5Z" fill="black"/>
</svg>
